<?xml version="1.0" standalone="no"?>
<!DOCTYPE svg PUBLIC "-//W3C//DTD SVG 20010904//EN"
 "http://www.w3.org/TR/2001/REC-SVG-20010904/DTD/svg10.dtd">
<svg version="1.0" xmlns="http://www.w3.org/2000/svg"
 width="1000.000000pt" height="337.000000pt" viewBox="0 0 1000.000000 337.000000"
 preserveAspectRatio="xMidYMid meet">

<g transform="translate(0.000000,337.000000) scale(0.100000,-0.100000)"
fill="#000000" stroke="none">
<path d="M1710 1655 l0 -835 835 0 835 0 0 835 0 835 -835 0 -835 0 0 -835z
m1350 550 l0 -65 -515 0 -515 0 0 58 c0 32 3 62 7 65 3 4 235 7 515 7 l508 0
0 -65z m-670 -210 l0 -65 -110 0 -110 0 0 -110 0 -110 80 0 80 0 0 -65 0 -65
-80 0 -80 0 0 -105 0 -105 110 0 110 0 0 -65 0 -65 -175 0 -175 0 0 410 0 410
175 0 175 0 0 -65z m220 -345 l0 -410 -65 0 -65 0 0 403 c0 222 3 407 7 410 3
4 33 7 65 7 l58 0 0 -410z m450 0 l0 -410 -180 0 -181 0 3 63 3 62 113 3 112
3 0 104 0 104 -82 3 -83 3 -3 63 -3 62 86 0 85 0 0 110 0 110 -115 0 -115 0 0
58 c0 32 3 62 7 65 3 4 84 7 180 7 l173 0 0 -410z m0 -545 l0 -65 -512 2 -513
3 -3 63 -3 62 516 0 515 0 0 -65z"/>
<path d="M3630 1855 l0 -315 130 0 130 0 0 50 0 50 -85 0 -86 0 3 81 3 82 60
1 60 1 3 48 3 47 -65 0 -66 0 0 85 0 85 86 0 85 0 -3 48 -3 47 -127 3 -128 3
0 -316z"/>
<path d="M3960 1855 l0 -315 45 0 45 0 2 188 3 187 60 -185 61 -185 52 -3 52
-3 -2 313 -3 313 -45 0 -45 0 0 -192 c0 -106 -3 -189 -6 -185 -4 4 -30 88 -60
187 -29 99 -58 183 -63 187 -6 4 -30 8 -53 8 l-43 0 0 -315z"/>
<path d="M4432 2150 c-18 -11 -41 -34 -52 -52 -19 -31 -20 -47 -18 -253 3
-202 5 -222 23 -247 63 -83 185 -81 249 5 18 25 21 45 24 163 l4 134 -76 0
-76 0 0 -51 c0 -46 2 -50 23 -47 21 3 22 -1 25 -64 2 -57 0 -70 -18 -88 -25
-25 -45 -25 -70 0 -19 19 -20 33 -20 204 0 154 3 187 16 200 8 9 21 17 27 17
47 5 67 -19 67 -78 l0 -43 50 0 50 0 0 48 c0 131 -125 214 -228 152z"/>
<path d="M5303 2151 c-43 -27 -67 -75 -67 -136 0 -68 22 -105 114 -195 43 -41
81 -85 85 -98 10 -34 -2 -69 -30 -88 -23 -15 -27 -15 -50 0 -14 10 -27 30 -31
51 -6 31 -9 35 -38 34 -59 -1 -65 -8 -51 -63 23 -88 100 -136 188 -116 70 15
107 68 107 150 0 68 -24 110 -109 195 -79 78 -100 120 -81 165 21 50 80 41 94
-15 6 -24 10 -25 44 -19 20 3 41 10 46 14 14 13 -12 74 -44 105 -40 39 -128
46 -177 16z"/>
<path d="M6413 2150 c-42 -25 -63 -68 -63 -130 0 -74 18 -106 108 -195 80 -80
99 -114 88 -158 -6 -26 -48 -50 -71 -41 -18 7 -45 55 -45 79 0 14 -8 16 -40
12 -51 -6 -54 -9 -46 -49 15 -82 75 -131 159 -132 82 0 141 61 141 147 1 72
-22 112 -115 206 -75 76 -79 82 -79 125 0 79 66 97 94 24 8 -22 15 -28 31 -24
11 3 30 6 43 6 48 0 11 100 -49 132 -45 24 -115 23 -156 -2z"/>
<path d="M6907 2164 c-4 -4 -7 -146 -7 -316 l0 -308 135 0 135 0 0 50 0 50
-85 0 -86 0 3 82 3 82 58 -3 57 -2 0 50 0 51 -60 0 -60 0 0 85 0 85 86 0 85 0
-3 48 -3 47 -126 3 c-69 1 -128 -1 -132 -4z"/>
<path d="M7701 2152 c-44 -22 -71 -73 -71 -135 0 -66 19 -98 116 -198 85 -88
97 -113 78 -163 -20 -53 -87 -37 -105 24 -12 41 -13 41 -51 37 -21 -2 -41 -7
-45 -10 -9 -10 6 -70 27 -104 37 -62 138 -86 208 -49 39 20 71 82 72 137 0 56
-45 133 -112 191 -68 60 -88 92 -88 142 0 58 53 80 87 37 7 -9 13 -24 13 -35
0 -14 5 -17 23 -12 12 3 32 6 45 6 46 0 17 95 -41 130 -40 25 -110 26 -156 2z"/>
<path d="M7967 2163 c-3 -5 20 -78 50 -163 l56 -155 6 -150 6 -150 48 -3 47
-3 0 133 0 133 60 169 c33 94 60 176 60 183 0 17 -84 18 -97 1 -6 -7 -23 -55
-38 -106 -16 -50 -31 -90 -34 -86 -3 3 -20 49 -36 102 l-31 97 -46 3 c-25 2
-49 -1 -51 -5z"/>
<path d="M4740 1850 l0 -310 125 0 125 0 0 50 0 50 -80 0 -80 0 0 260 0 260
-45 0 -45 0 0 -310z"/>
<path d="M5052 1853 l3 -308 48 -3 47 -3 0 310 0 311 -50 0 -50 0 2 -307z"/>
<path d="M5610 1849 l0 -310 48 3 47 3 5 129 5 129 50 0 50 0 3 -132 3 -131
44 0 45 0 0 310 0 310 -45 0 -45 0 0 -130 0 -130 -55 0 -55 0 0 130 0 130 -50
0 -50 0 0 -311z"/>
<path d="M6170 1850 l0 -310 45 0 45 0 0 310 0 310 -45 0 -45 0 0 -310z"/>
<path d="M7287 1872 c-27 -158 -51 -297 -54 -309 -5 -22 -2 -23 45 -23 l51 0
7 38 c20 112 15 105 64 105 49 0 47 3 65 -105 6 -38 6 -38 55 -38 28 0 50 2
50 4 0 2 -22 138 -50 302 -27 165 -50 302 -50 307 0 4 -30 7 -67 7 l-68 0 -48
-288z m142 -69 c1 -19 -4 -23 -29 -23 -16 0 -30 4 -30 10 0 21 22 166 27 180
6 14 31 -116 32 -167z"/>
</g>
</svg>
