<?xml version="1.0" standalone="no"?>
<!DOCTYPE svg PUBLIC "-//W3C//DTD SVG 20010904//EN"
 "http://www.w3.org/TR/2001/REC-SVG-20010904/DTD/svg10.dtd">
<svg version="1.0" xmlns="http://www.w3.org/2000/svg"
 width="512.000000pt" height="512.000000pt" viewBox="0 0 512.000000 512.000000"
 preserveAspectRatio="xMidYMid meet">

<g transform="translate(0.000000,512.000000) scale(0.100000,-0.100000)"
fill="#fff" stroke="none">
<path d="M971 3814 c-90 -45 -134 -140 -110 -238 16 -67 85 -138 151 -154 35
-9 432 -12 1551 -12 1695 0 1574 -6 1645 76 96 109 68 264 -59 328 l-53 26
-1536 0 -1536 0 -53 -26z"/>
<path d="M980 2754 c-173 -75 -161 -342 18 -394 26 -8 381 -10 1158 -8 l1120
3 37 25 c21 14 50 43 65 64 24 35 27 49 27 116 0 67 -3 81 -27 116 -15 21 -44
50 -65 64 l-37 25 -1130 2 c-994 2 -1135 1 -1166 -13z"/>
<path d="M1008 1698 c-21 -5 -58 -28 -82 -50 -113 -98 -89 -275 45 -342 l53
-26 674 0 c505 0 685 3 716 12 57 17 119 82 135 141 27 95 -13 195 -97 244
l-47 28 -680 2 c-429 1 -694 -2 -717 -9z"/>
</g>
</svg>
